<svg width="24" height="24" viewBox="0 0 24 24" fill="none" xmlns="http://www.w3.org/2000/svg">
<path d="M7 5.90002C7 5.62388 7.22386 5.40002 7.5 5.40002H16.5C16.7761 5.40002 17 5.62388 17 5.90002V6.90002C17 7.17617 16.7761 7.40002 16.5 7.40002H7.5C7.22386 7.40002 7 7.17617 7 6.90002V5.90002Z" fill="#1B272F"/>
<path d="M7.8999 9C7.62376 9 7.3999 9.22386 7.3999 9.5V10.5C7.3999 10.7761 7.62376 11 7.8999 11H8.8999C9.17604 11 9.3999 10.7761 9.3999 10.5V9.5C9.3999 9.22386 9.17604 9 8.8999 9H7.8999Z" fill="#1B272F"/>
<path d="M11 9.5C11 9.22386 11.2239 9 11.5 9H12.5C12.7761 9 13 9.22386 13 9.5V10.5C13 10.7761 12.7761 11 12.5 11H11.5C11.2239 11 11 10.7761 11 10.5V9.5Z" fill="#1B272F"/>
<path d="M15.0999 9C14.8237 9 14.5999 9.22386 14.5999 9.5V10.5C14.5999 10.7761 14.8237 11 15.0999 11H16.0999C16.376 11 16.5999 10.7761 16.5999 10.5V9.5C16.5999 9.22386 16.376 9 16.0999 9H15.0999Z" fill="#1B272F"/>
<path d="M7.3999 13.1C7.3999 12.8238 7.62376 12.6 7.8999 12.6H8.8999C9.17604 12.6 9.3999 12.8238 9.3999 13.1V14.1C9.3999 14.3761 9.17604 14.6 8.8999 14.6H7.8999C7.62376 14.6 7.3999 14.3761 7.3999 14.1V13.1Z" fill="#1B272F"/>
<path d="M11.5 12.6C11.2239 12.6 11 12.8238 11 13.1V14.1C11 14.3761 11.2239 14.6 11.5 14.6H12.5C12.7761 14.6 13 14.3761 13 14.1V13.1C13 12.8238 12.7761 12.6 12.5 12.6H11.5Z" fill="#1B272F"/>
<path d="M14.5999 13.1C14.5999 12.8238 14.8237 12.6 15.0999 12.6H16.0999C16.376 12.6 16.5999 12.8238 16.5999 13.1V14.1C16.5999 14.3761 16.376 14.6 16.0999 14.6H15.0999C14.8237 14.6 14.5999 14.3761 14.5999 14.1V13.1Z" fill="#1B272F"/>
<path d="M7.8999 16.2C7.62376 16.2 7.3999 16.4238 7.3999 16.7V17.7C7.3999 17.9761 7.62376 18.2 7.8999 18.2H8.8999C9.17604 18.2 9.3999 17.9761 9.3999 17.7V16.7C9.3999 16.4238 9.17604 16.2 8.8999 16.2H7.8999Z" fill="#1B272F"/>
<path d="M11 16.7C11 16.4238 11.2239 16.2 11.5 16.2H12.5C12.7761 16.2 13 16.4238 13 16.7V17.7C13 17.9761 12.7761 18.2 12.5 18.2H11.5C11.2239 18.2 11 17.9761 11 17.7V16.7Z" fill="#1B272F"/>
<path d="M15.0999 16.2C14.8237 16.2 14.5999 16.4238 14.5999 16.7V17.7C14.5999 17.9761 14.8237 18.2 15.0999 18.2H16.0999C16.376 18.2 16.5999 17.9761 16.5999 17.7V16.7C16.5999 16.4238 16.376 16.2 16.0999 16.2H15.0999Z" fill="#1B272F"/>
<path fill-rule="evenodd" clip-rule="evenodd" d="M6.5 2C5.11929 2 4 3.11929 4 4.5V19.5C4 20.8807 5.11929 22 6.5 22H17.5C18.8807 22 20 20.8807 20 19.5V4.5C20 3.11929 18.8807 2 17.5 2H6.5ZM17.5 3.6H6.5C6.00294 3.6 5.6 4.00294 5.6 4.5V19.5C5.6 19.9971 6.00294 20.4 6.5 20.4H17.5C17.9971 20.4 18.4 19.9971 18.4 19.5V4.5C18.4 4.00294 17.9971 3.6 17.5 3.6Z" fill="#1B272F"/>
</svg>
