<svg width="16" height="16" viewBox="0 0 16 16" fill="none" xmlns="http://www.w3.org/2000/svg">
<path d="M5.19497 4.20503C4.92161 3.93166 4.47839 3.93166 4.20503 4.20503C3.93166 4.47839 3.93166 4.92161 4.20503 5.19497L7.10371 8.09366L4.20628 10.9911C3.93291 11.2645 3.93291 11.7077 4.20628 11.981C4.47965 12.2544 4.92286 12.2544 5.19623 11.981L8.09366 9.08361L10.9924 11.9823C11.2657 12.2557 11.7089 12.2557 11.9823 11.9823C12.2557 11.7089 12.2557 11.2657 11.9823 10.9924L9.08361 8.09366L11.981 5.19628C12.2544 4.92291 12.2544 4.47969 11.981 4.20633C11.7076 3.93296 11.2644 3.93296 10.9911 4.20633L8.09366 7.10371L5.19497 4.20503Z" fill="#1B272F"/>
</svg>
