<svg width="24" height="24" viewBox="0 0 24 24" fill="none" xmlns="http://www.w3.org/2000/svg">
<path fill-rule="evenodd" clip-rule="evenodd" d="M20 19.5C20 20.8807 18.8807 22 17.5 22H6.5C5.11929 22 4 20.8807 4 19.5V4.5C4 3.11929 5.11929 2 6.5 2H13.636L20 8.36396V19.5ZM13.6 4.2267V7.5C13.6 7.99705 14.0029 8.4 14.5 8.4H17.7733L13.6 4.2267ZM12 3.6H6.5C6.00294 3.6 5.6 4.00294 5.6 4.5V19.5C5.6 19.9971 6.00294 20.4 6.5 20.4H17.5C17.9971 20.4 18.4 19.9971 18.4 19.5V10H14.5C13.1193 10 12 8.88071 12 7.5V3.6Z" fill="black"/>
</svg>
