<svg width="24" height="24" viewBox="0 0 24 24" fill="none" xmlns="http://www.w3.org/2000/svg">
<path fill-rule="evenodd" clip-rule="evenodd" d="M20.8891 8.01041C21.4749 7.42462 21.4749 6.47487 20.8891 5.88909L18.0607 3.06066C17.4749 2.47487 16.5251 2.47487 15.9393 3.06066L3.9635 15.0365C3.70658 15.2934 3.55165 15.6349 3.52748 15.9974L3.32545 19.0278C3.26508 19.9334 4.01638 20.6847 4.92191 20.6243L7.95236 20.4223C8.31489 20.3981 8.65633 20.2432 8.91325 19.9862L20.8891 8.01041ZM15.7272 5.53553L17 4.26274L19.687 6.94975L18.4142 8.22254L15.7272 5.53553ZM14.5958 6.6669L5.12144 16.1413L4.92951 19.0202L7.80844 18.8283L17.2828 9.35391L14.5958 6.6669Z" fill="#1B272F"/>
</svg>
