<svg width="24" height="25" viewBox="0 0 24 25" fill="none" xmlns="http://www.w3.org/2000/svg">
<path fill-rule="evenodd" clip-rule="evenodd" d="M2.15962 5.85329C2.37273 5.18342 2.85911 4.5989 3.60527 4.31627C3.86641 4.21735 4.14215 4.16675 4.42002 4.16675H19.58C19.8579 4.16675 20.1336 4.21735 20.3947 4.31627C21.1409 4.5989 21.6273 5.18343 21.8404 5.8533C21.9436 6.13869 22 6.44794 22 6.77092V18.2292C22 19.6675 20.8807 20.8334 19.5 20.8334H4.5C3.11929 20.8334 2 19.6675 2 18.2292V6.77092C2 6.44793 2.05645 6.13869 2.15962 5.85329ZM3.67218 6.40245C3.80961 6.06785 4.12852 5.83341 4.5 5.83341H19.5C19.8715 5.83341 20.1904 6.06786 20.3278 6.40245C20.4333 6.75542 20.3103 7.17575 19.9409 7.37527L12.4143 11.4406C12.1545 11.5809 11.8455 11.5809 11.5857 11.4406L4.05909 7.37528C3.68967 7.17575 3.56669 6.75541 3.67218 6.40245ZM20.4 9.00471V18.2292C20.4 18.747 19.9971 19.1667 19.5 19.1667H4.5C4.00294 19.1667 3.6 18.747 3.6 18.2292V9.00472L10.8492 12.9202C11.5708 13.3099 12.4292 13.3099 13.1508 12.9202L20.4 9.00471Z" fill="#127CCA"/>
</svg>
