<svg width="24" height="25" viewBox="0 0 24 25" fill="none" xmlns="http://www.w3.org/2000/svg">
<path d="M4.62875 5.41266L4.65058 5.38668L4.67014 5.35895C4.72068 5.28725 4.77715 5.21859 4.83963 5.15361L5.53597 4.42942C6.18266 3.75686 7.21768 3.75686 7.86437 4.42942L10.6498 7.32619C11.3134 8.0164 11.3134 9.14797 10.6498 9.83818L9.95341 10.5624L10.4924 11.0807L9.95341 10.5624C9.60123 10.9286 9.44547 11.583 9.83591 12.1088C10.1894 12.585 10.5769 13.0439 10.9979 13.4818C11.419 13.9198 11.8607 14.323 12.3193 14.6913C12.858 15.124 13.5346 14.94 13.8921 14.5681L14.5885 13.8439C15.2352 13.1714 16.2702 13.1714 16.9169 13.8439L19.7022 16.7407C20.3659 17.4309 20.3659 18.5625 19.7022 19.2527L19.1874 19.7882L19.1582 19.8185L19.1324 19.8518C19.0684 19.9341 19.0002 20.013 18.9278 20.0883C17.9957 21.0577 16.3937 21.3587 14.3511 20.7888C12.3284 20.2244 10.0384 18.8357 8.00217 16.718C6.01592 14.6523 4.68951 12.3278 4.11859 10.2455C3.54044 8.13698 3.76984 6.43475 4.62875 5.41266Z" stroke="#127CCA" stroke-width="1.6"/>
</svg>
