<svg width="24" height="24" viewBox="0 0 24 24" fill="none" xmlns="http://www.w3.org/2000/svg">
<rect x="3.8" y="3.8" width="16.4" height="16.4" rx="1.7" stroke="#127CCA" stroke-width="1.6"/>
<path d="M12.7987 7.8C12.7987 7.35817 12.4406 7 11.9987 7C11.5569 7 11.1987 7.35817 11.1987 7.8V11.2009L7.79997 11.201C7.35814 11.201 6.99998 11.5592 7 12.0011C7.00002 12.4429 7.3582 12.801 7.80003 12.801L11.1987 12.8009V16.2021C11.1987 16.6439 11.5569 17.0021 11.9987 17.0021C12.4406 17.0021 12.7987 16.6439 12.7987 16.2021V12.8009L16.1974 12.8008C16.6392 12.8008 16.9974 12.4426 16.9973 12.0008C16.9973 11.559 16.6391 11.2008 16.1973 11.2008L12.7987 11.2009V7.8Z" fill="#127CCA"/>
</svg>
