<svg width="24" height="24" viewBox="0 0 24 24" fill="none" xmlns="http://www.w3.org/2000/svg">
<path fill-rule="evenodd" clip-rule="evenodd" d="M9.1999 7.8C9.1999 7.35817 9.55807 7 9.9999 7C10.0318 7 10.0633 7.00187 10.0943 7.00551C10.129 7.00187 10.1642 7 10.1999 7H13.1999C14.8568 7 16.1999 8.34315 16.1999 10C16.1999 11.6569 14.8568 13 13.1999 13H12.0063L12 13H10.7999V14H12C12.4418 14 12.8 14.3581 12.8 14.8C12.8 15.2418 12.4418 15.6 12 15.6H10.7999V16.2C10.7999 16.6418 10.4417 17 9.9999 17C9.55807 17 9.1999 16.6418 9.1999 16.2V15.6H8.6C8.15817 15.6 7.8 15.2418 7.8 14.8C7.8 14.3581 8.15817 14 8.6 14H9.1999V13H8.6C8.15817 13 7.8 12.6419 7.8 12.2C7.8 11.7582 8.15817 11.4 8.6 11.4H9.1999V7.8ZM10.7999 11.4V8.6H13.1999C13.9731 8.6 14.5999 9.2268 14.5999 10C14.5999 10.7732 13.9731 11.4 13.1999 11.4H10.7999Z" fill="#127CCA"/>
<path fill-rule="evenodd" clip-rule="evenodd" d="M2 12C2 6.47715 6.47715 2 12 2C17.5228 2 22 6.47715 22 12C22 17.5228 17.5228 22 12 22C6.47715 22 2 17.5228 2 12ZM12 20.4C7.36081 20.4 3.6 16.6392 3.6 12C3.6 7.36081 7.36081 3.6 12 3.6C16.6392 3.6 20.4 7.36081 20.4 12C20.4 16.6392 16.6392 20.4 12 20.4Z" fill="#127CCA"/>
</svg>
