<svg width="16" height="16" viewBox="0 0 16 16" fill="none" xmlns="http://www.w3.org/2000/svg">
<path d="M8.30469 9.09668H3.21191V8.02344H8.30469C8.80143 8.02344 9.20931 7.94369 9.52832 7.78418C9.84733 7.62467 10.082 7.39909 10.2324 7.10742C10.3874 6.81576 10.4648 6.47168 10.4648 6.0752C10.4648 5.75163 10.3919 5.44173 10.2461 5.14551C10.1048 4.84928 9.87467 4.60547 9.55566 4.41406C9.24121 4.22266 8.82422 4.12695 8.30469 4.12695H5.93945V13H4.62695V3.04688H8.30469C9.05664 3.04688 9.6901 3.17676 10.2051 3.43652C10.7201 3.69173 11.1097 4.0472 11.374 4.50293C11.6429 4.9541 11.7773 5.47363 11.7773 6.06152C11.7773 6.69954 11.6429 7.24642 11.374 7.70215C11.1097 8.15332 10.7201 8.49967 10.2051 8.74121C9.6901 8.97819 9.05664 9.09668 8.30469 9.09668ZM8.22266 10.0332V11.1133H3.21191V10.0332H8.22266Z" fill="#63707A"/>
</svg>
