<svg width="24" height="24" viewBox="0 0 24 24" fill="none" xmlns="http://www.w3.org/2000/svg">
<path d="M9 14.7805C9 14.3494 9.32561 14 9.72727 14H14.2727C14.6744 14 15 14.3494 15 14.7805C15 15.2115 14.6744 15.561 14.2727 15.561H9.72727C9.32561 15.561 9 15.2115 9 14.7805Z" fill="#127CCA"/>
<path d="M9 17.2195C9 16.7885 9.32561 16.439 9.72727 16.439H14.2727C14.6744 16.439 15 16.7885 15 17.2195C15 17.6506 14.6744 18 14.2727 18H9.72727C9.32561 18 9 17.6506 9 17.2195Z" fill="#127CCA"/>
<path fill-rule="evenodd" clip-rule="evenodd" d="M18.5 21H5.5C4.11929 21 3 19.8807 3 18.5V5.5C3 4.11929 4.11929 3 5.5 3H14.6005C15.2635 3 15.8994 3.26339 16.3683 3.73223L20.2678 7.63173C20.7366 8.10057 21 8.73645 21 9.3995V18.5C21 19.8807 19.8807 21 18.5 21ZM14 4.6H14.6005C14.8392 4.6 15.0681 4.69482 15.2369 4.8636L19.1364 8.7631C19.3052 8.93188 19.4 9.1608 19.4 9.3995V18.5C19.4 18.9971 18.9971 19.4 18.5 19.4H18V12.5C18 11.6716 17.3284 11 16.5 11H7.5C6.67157 11 6 11.6716 6 12.5V19.4H5.5C5.00294 19.4 4.6 18.9971 4.6 18.5V5.5C4.6 5.00294 5.00294 4.6 5.5 4.6H6V6.5C6 7.32843 6.67157 8 7.5 8H12.5C13.3284 8 14 7.32843 14 6.5V4.6ZM16.4 12.6V19.4H7.6V12.6H16.4ZM12.4 4.6H7.6V6.4H12.4V4.6Z" fill="#127CCA"/>
</svg>
