<svg width="16" height="16" viewBox="0 0 16 16" fill="none" xmlns="http://www.w3.org/2000/svg">
<path d="M2.0001 3.90002H14V10.9334L11 12L10 10L8 11V12L2 11L2.0001 3.90002Z" fill="#D0E2FA"/>
<path fill-rule="evenodd" clip-rule="evenodd" d="M4 0.730011V2.27001H3.5C2.11929 2.27001 1 3.3893 1 4.77001V9.77001C1 11.1507 2.11929 12.27 3.5 12.27H4V15.27H13V12.22C14.1411 11.9884 15 10.9795 15 9.77001V4.77001C15 3.3893 13.8807 2.27001 12.5 2.27001H7.82929C7.41746 1.10482 6.30622 0.730011 5 0.730011H4ZM12 12.27H10V10.27C8.89543 10.27 8 11.1654 8 12.27H5V14.27H12V12.27ZM5 1.73001C6.10457 1.73001 7 2.16544 7 3.27001V3.67001H12.5C13.1075 3.67001 13.6 4.1625 13.6 4.77001V9.77001C13.6 10.3775 13.1075 10.87 12.5 10.87H11V9.27001H10C8.84878 9.27001 7.84902 9.91845 7.34602 10.87H3.5C2.89249 10.87 2.4 10.3775 2.4 9.77001V4.77001C2.4 4.1625 2.89249 3.67001 3.5 3.67001H5V1.73001Z" fill="#1B272F"/>
</svg>
